<?xml version="1.0" encoding="UTF-8"?>
<svg xmlns="http://www.w3.org/2000/svg" xmlns:xlink="http://www.w3.org/1999/xlink" width="244pt" height="456pt" viewBox="0 0 244 456" version="1.1">
<g id="surface1">
<path style=" stroke:none;fill-rule:evenodd;fill:rgb(0%,0%,0%);fill-opacity:1;" d="M 89.296875 86.71875 L 89.296875 35.695312 L 60.953125 35.695312 L 55.285156 41.363281 L 55.285156 24.359375 L 140.320312 24.359375 L 140.320312 41.363281 L 134.652344 35.695312 L 106.304688 35.695312 L 106.304688 86.71875 L 89.296875 86.71875 "/>
<path style="fill:none;stroke-width:9.4485;stroke-linecap:butt;stroke-linejoin:miter;stroke:rgb(0%,0%,0%);stroke-opacity:1;stroke-miterlimit:10;" d="M 892.96875 3692.8125 L 892.96875 4203.046875 L 609.53125 4203.046875 L 552.851562 4146.367188 L 552.851562 4316.40625 L 1403.203125 4316.40625 L 1403.203125 4146.367188 L 1346.523438 4203.046875 L 1063.046875 4203.046875 L 1063.046875 3692.8125 Z M 892.96875 3692.8125 " transform="matrix(0.1,0,0,-0.1,0,456)"/>
<path style="fill-rule:evenodd;fill:rgb(0%,0%,0%);fill-opacity:1;stroke-width:9.4485;stroke-linecap:butt;stroke-linejoin:miter;stroke:rgb(0%,0%,0%);stroke-opacity:1;stroke-miterlimit:10;" d="M 1289.804688 2558.984375 L 1006.367188 2558.984375 L 1006.367188 2842.460938 L 1289.804688 2842.460938 L 1289.804688 3267.65625 L 2140.195312 3267.65625 L 2140.195312 2870.78125 L 2423.632812 2870.78125 L 2423.632812 2558.984375 L 1204.804688 2558.984375 " transform="matrix(0.1,0,0,-0.1,0,456)"/>
<path style="fill-rule:evenodd;fill:rgb(0%,0%,0%);fill-opacity:1;stroke-width:9.4485;stroke-linecap:butt;stroke-linejoin:miter;stroke:rgb(0%,0%,0%);stroke-opacity:1;stroke-miterlimit:10;" d="M 1289.804688 3267.65625 L 156.015625 3267.65625 L 156.015625 3692.8125 L 2140.195312 3692.8125 L 2140.195312 3267.65625 " transform="matrix(0.1,0,0,-0.1,0,456)"/>
<path style="fill:none;stroke-width:9.4485;stroke-linecap:butt;stroke-linejoin:miter;stroke:rgb(0%,0%,0%);stroke-opacity:1;stroke-miterlimit:10;" d="M 156.015625 4543.164062 L 156.015625 2417.265625 " transform="matrix(0.1,0,0,-0.1,0,456)"/>
<path style="fill:none;stroke-width:9.4485;stroke-linecap:butt;stroke-linejoin:miter;stroke:rgb(0%,0%,0%);stroke-opacity:1;stroke-miterlimit:10;" d="M 156.015625 4486.484375 L 14.257812 4401.445312 " transform="matrix(0.1,0,0,-0.1,0,456)"/>
<path style="fill:none;stroke-width:9.4485;stroke-linecap:butt;stroke-linejoin:miter;stroke:rgb(0%,0%,0%);stroke-opacity:1;stroke-miterlimit:10;" d="M 156.015625 4429.804688 L 14.257812 4344.765625 " transform="matrix(0.1,0,0,-0.1,0,456)"/>
<path style="fill:none;stroke-width:9.4485;stroke-linecap:butt;stroke-linejoin:miter;stroke:rgb(0%,0%,0%);stroke-opacity:1;stroke-miterlimit:10;" d="M 156.015625 4373.125 L 14.257812 4288.085938 " transform="matrix(0.1,0,0,-0.1,0,456)"/>
<path style="fill:none;stroke-width:9.4485;stroke-linecap:butt;stroke-linejoin:miter;stroke:rgb(0%,0%,0%);stroke-opacity:1;stroke-miterlimit:10;" d="M 156.015625 4316.40625 L 14.257812 4231.40625 " transform="matrix(0.1,0,0,-0.1,0,456)"/>
<path style="fill:none;stroke-width:9.4485;stroke-linecap:butt;stroke-linejoin:miter;stroke:rgb(0%,0%,0%);stroke-opacity:1;stroke-miterlimit:10;" d="M 156.015625 4259.726562 L 14.257812 4174.6875 " transform="matrix(0.1,0,0,-0.1,0,456)"/>
<path style="fill:none;stroke-width:9.4485;stroke-linecap:butt;stroke-linejoin:miter;stroke:rgb(0%,0%,0%);stroke-opacity:1;stroke-miterlimit:10;" d="M 156.015625 4203.046875 L 14.257812 4118.007812 " transform="matrix(0.1,0,0,-0.1,0,456)"/>
<path style="fill:none;stroke-width:9.4485;stroke-linecap:butt;stroke-linejoin:miter;stroke:rgb(0%,0%,0%);stroke-opacity:1;stroke-miterlimit:10;" d="M 156.015625 4146.367188 L 14.257812 4061.328125 " transform="matrix(0.1,0,0,-0.1,0,456)"/>
<path style="fill:none;stroke-width:9.4485;stroke-linecap:butt;stroke-linejoin:miter;stroke:rgb(0%,0%,0%);stroke-opacity:1;stroke-miterlimit:10;" d="M 156.015625 4089.648438 L 14.257812 4004.609375 " transform="matrix(0.1,0,0,-0.1,0,456)"/>
<path style="fill:none;stroke-width:9.4485;stroke-linecap:butt;stroke-linejoin:miter;stroke:rgb(0%,0%,0%);stroke-opacity:1;stroke-miterlimit:10;" d="M 156.015625 4032.96875 L 14.257812 3947.929688 " transform="matrix(0.1,0,0,-0.1,0,456)"/>
<path style="fill:none;stroke-width:9.4485;stroke-linecap:butt;stroke-linejoin:miter;stroke:rgb(0%,0%,0%);stroke-opacity:1;stroke-miterlimit:10;" d="M 156.015625 3976.289062 L 14.257812 3891.25 " transform="matrix(0.1,0,0,-0.1,0,456)"/>
<path style="fill:none;stroke-width:9.4485;stroke-linecap:butt;stroke-linejoin:miter;stroke:rgb(0%,0%,0%);stroke-opacity:1;stroke-miterlimit:10;" d="M 156.015625 3919.609375 L 14.257812 3834.53125 " transform="matrix(0.1,0,0,-0.1,0,456)"/>
<path style="fill:none;stroke-width:9.4485;stroke-linecap:butt;stroke-linejoin:miter;stroke:rgb(0%,0%,0%);stroke-opacity:1;stroke-miterlimit:10;" d="M 156.015625 3862.890625 L 14.257812 3777.851562 " transform="matrix(0.1,0,0,-0.1,0,456)"/>
<path style="fill:none;stroke-width:9.4485;stroke-linecap:butt;stroke-linejoin:miter;stroke:rgb(0%,0%,0%);stroke-opacity:1;stroke-miterlimit:10;" d="M 156.015625 3806.210938 L 14.257812 3721.171875 " transform="matrix(0.1,0,0,-0.1,0,456)"/>
<path style="fill:none;stroke-width:9.4485;stroke-linecap:butt;stroke-linejoin:miter;stroke:rgb(0%,0%,0%);stroke-opacity:1;stroke-miterlimit:10;" d="M 156.015625 3749.492188 L 14.257812 3664.492188 " transform="matrix(0.1,0,0,-0.1,0,456)"/>
<path style="fill:none;stroke-width:9.4485;stroke-linecap:butt;stroke-linejoin:miter;stroke:rgb(0%,0%,0%);stroke-opacity:1;stroke-miterlimit:10;" d="M 156.015625 3692.8125 L 14.257812 3607.773438 " transform="matrix(0.1,0,0,-0.1,0,456)"/>
<path style="fill:none;stroke-width:9.4485;stroke-linecap:butt;stroke-linejoin:miter;stroke:rgb(0%,0%,0%);stroke-opacity:1;stroke-miterlimit:10;" d="M 156.015625 3636.132812 L 14.257812 3551.09375 " transform="matrix(0.1,0,0,-0.1,0,456)"/>
<path style="fill:none;stroke-width:9.4485;stroke-linecap:butt;stroke-linejoin:miter;stroke:rgb(0%,0%,0%);stroke-opacity:1;stroke-miterlimit:10;" d="M 156.015625 3579.453125 L 14.257812 3494.414062 " transform="matrix(0.1,0,0,-0.1,0,456)"/>
<path style="fill:none;stroke-width:9.4485;stroke-linecap:butt;stroke-linejoin:miter;stroke:rgb(0%,0%,0%);stroke-opacity:1;stroke-miterlimit:10;" d="M 156.015625 3522.734375 L 14.257812 3437.695312 " transform="matrix(0.1,0,0,-0.1,0,456)"/>
<path style="fill:none;stroke-width:9.4485;stroke-linecap:butt;stroke-linejoin:miter;stroke:rgb(0%,0%,0%);stroke-opacity:1;stroke-miterlimit:10;" d="M 156.015625 3466.054688 L 14.257812 3381.015625 " transform="matrix(0.1,0,0,-0.1,0,456)"/>
<path style="fill:none;stroke-width:9.4485;stroke-linecap:butt;stroke-linejoin:miter;stroke:rgb(0%,0%,0%);stroke-opacity:1;stroke-miterlimit:10;" d="M 156.015625 3409.375 L 14.257812 3324.335938 " transform="matrix(0.1,0,0,-0.1,0,456)"/>
<path style="fill:none;stroke-width:9.4485;stroke-linecap:butt;stroke-linejoin:miter;stroke:rgb(0%,0%,0%);stroke-opacity:1;stroke-miterlimit:10;" d="M 156.015625 3352.695312 L 14.257812 3267.65625 " transform="matrix(0.1,0,0,-0.1,0,456)"/>
<path style="fill:none;stroke-width:9.4485;stroke-linecap:butt;stroke-linejoin:miter;stroke:rgb(0%,0%,0%);stroke-opacity:1;stroke-miterlimit:10;" d="M 156.015625 3295.976562 L 14.257812 3210.9375 " transform="matrix(0.1,0,0,-0.1,0,456)"/>
<path style="fill:none;stroke-width:9.4485;stroke-linecap:butt;stroke-linejoin:miter;stroke:rgb(0%,0%,0%);stroke-opacity:1;stroke-miterlimit:10;" d="M 156.015625 3239.296875 L 14.257812 3154.257812 " transform="matrix(0.1,0,0,-0.1,0,456)"/>
<path style="fill:none;stroke-width:9.4485;stroke-linecap:butt;stroke-linejoin:miter;stroke:rgb(0%,0%,0%);stroke-opacity:1;stroke-miterlimit:10;" d="M 156.015625 3182.617188 L 14.257812 3097.578125 " transform="matrix(0.1,0,0,-0.1,0,456)"/>
<path style="fill:none;stroke-width:9.4485;stroke-linecap:butt;stroke-linejoin:miter;stroke:rgb(0%,0%,0%);stroke-opacity:1;stroke-miterlimit:10;" d="M 156.015625 3125.898438 L 14.257812 3040.898438 " transform="matrix(0.1,0,0,-0.1,0,456)"/>
<path style="fill:none;stroke-width:9.4485;stroke-linecap:butt;stroke-linejoin:miter;stroke:rgb(0%,0%,0%);stroke-opacity:1;stroke-miterlimit:10;" d="M 156.015625 3069.21875 L 14.257812 2984.179688 " transform="matrix(0.1,0,0,-0.1,0,456)"/>
<path style="fill:none;stroke-width:9.4485;stroke-linecap:butt;stroke-linejoin:miter;stroke:rgb(0%,0%,0%);stroke-opacity:1;stroke-miterlimit:10;" d="M 156.015625 3012.539062 L 14.257812 2927.5 " transform="matrix(0.1,0,0,-0.1,0,456)"/>
<path style="fill:none;stroke-width:9.4485;stroke-linecap:butt;stroke-linejoin:miter;stroke:rgb(0%,0%,0%);stroke-opacity:1;stroke-miterlimit:10;" d="M 156.015625 2955.859375 L 14.257812 2870.78125 " transform="matrix(0.1,0,0,-0.1,0,456)"/>
<path style="fill:none;stroke-width:9.4485;stroke-linecap:butt;stroke-linejoin:miter;stroke:rgb(0%,0%,0%);stroke-opacity:1;stroke-miterlimit:10;" d="M 156.015625 2899.140625 L 14.257812 2814.101562 " transform="matrix(0.1,0,0,-0.1,0,456)"/>
<path style="fill:none;stroke-width:9.4485;stroke-linecap:butt;stroke-linejoin:miter;stroke:rgb(0%,0%,0%);stroke-opacity:1;stroke-miterlimit:10;" d="M 156.015625 2842.460938 L 14.257812 2757.421875 " transform="matrix(0.1,0,0,-0.1,0,456)"/>
<path style="fill:none;stroke-width:9.4485;stroke-linecap:butt;stroke-linejoin:miter;stroke:rgb(0%,0%,0%);stroke-opacity:1;stroke-miterlimit:10;" d="M 156.015625 2785.78125 L 14.257812 2700.742188 " transform="matrix(0.1,0,0,-0.1,0,456)"/>
<path style="fill:none;stroke-width:9.4485;stroke-linecap:butt;stroke-linejoin:miter;stroke:rgb(0%,0%,0%);stroke-opacity:1;stroke-miterlimit:10;" d="M 156.015625 2729.0625 L 14.257812 2644.023438 " transform="matrix(0.1,0,0,-0.1,0,456)"/>
<path style="fill:none;stroke-width:9.4485;stroke-linecap:butt;stroke-linejoin:miter;stroke:rgb(0%,0%,0%);stroke-opacity:1;stroke-miterlimit:10;" d="M 156.015625 2672.382812 L 14.257812 2587.34375 " transform="matrix(0.1,0,0,-0.1,0,456)"/>
<path style="fill:none;stroke-width:9.4485;stroke-linecap:butt;stroke-linejoin:miter;stroke:rgb(0%,0%,0%);stroke-opacity:1;stroke-miterlimit:10;" d="M 156.015625 2615.703125 L 14.257812 2530.664062 " transform="matrix(0.1,0,0,-0.1,0,456)"/>
<path style="fill:none;stroke-width:9.4485;stroke-linecap:butt;stroke-linejoin:miter;stroke:rgb(0%,0%,0%);stroke-opacity:1;stroke-miterlimit:10;" d="M 156.015625 2558.984375 L 14.257812 2473.945312 " transform="matrix(0.1,0,0,-0.1,0,456)"/>
<path style="fill:none;stroke-width:9.4485;stroke-linecap:butt;stroke-linejoin:miter;stroke:rgb(0%,0%,0%);stroke-opacity:1;stroke-miterlimit:10;" d="M 156.015625 2502.304688 L 14.257812 2417.265625 " transform="matrix(0.1,0,0,-0.1,0,456)"/>
<path style=" stroke:none;fill-rule:evenodd;fill:rgb(52.929688%,81.054688%,100%);fill-opacity:1;" d="M 128.980469 200.101562 L 157.328125 455.210938 L 185.671875 455.210938 L 214.019531 200.101562 L 128.980469 200.101562 "/>
<path style="fill:none;stroke-width:4.72425;stroke-linecap:butt;stroke-linejoin:miter;stroke:rgb(52.929688%,81.054688%,100%);stroke-opacity:1;stroke-miterlimit:10;" d="M 1289.804688 2558.984375 L 1573.28125 7.890625 L 1856.71875 7.890625 L 2140.195312 2558.984375 Z M 1289.804688 2558.984375 " transform="matrix(0.1,0,0,-0.1,0,456)"/>
</g>
</svg>
